<?xml version="1.0" encoding="utf-8"?>
<!-- Generator: Adobe Illustrator 27.8.1, SVG Export Plug-In . SVG Version: 6.00 Build 0)  -->
<svg version="1.1" id="Livello_1" xmlns="http://www.w3.org/2000/svg" xmlns:xlink="http://www.w3.org/1999/xlink" x="0px" y="0px"
	 viewBox="0 0 174.5 263.8" style="enable-background:new 0 0 174.5 263.8;" xml:space="preserve">
<style type="text/css">
	.st0{fill:#FFFFFF;}
</style>
<polygon class="st0" points="88.2,4.7 97.2,29.1 88.2,53.5 79.1,29.1 "/>
<polygon class="st0" points="88.2,53.2 97.2,77.6 88.2,102 79.1,77.6 "/>
<path class="st0" d="M8.2,132.3c0,5.1,4.1,9.2,9.1,9.2c5,0,9.1-4.1,9.1-9.2s-4.1-9.2-9.1-9.2C12.2,123,8.2,127.1,8.2,132.3
	 M5.6,132.3c0-6.7,5.2-11.6,11.7-11.6c6.4,0,11.7,4.9,11.7,11.6c0,6.6-5.2,11.6-11.7,11.6S5.6,138.9,5.6,132.3"/>
<polygon class="st0" points="32.9,143.4 32.9,120.1 50.3,138.4 50.3,121 52.8,121 52.8,144.4 35.3,126.1 35.3,143.4 "/>
<polygon class="st0" points="69.5,123.4 60.4,123.4 60.4,130 69.3,130 69.3,132.4 60.4,132.4 60.4,141.1 69.5,141.1 69.5,143.4 
	57.9,143.4 57.9,121 69.5,121 "/>
<polygon class="st0" points="80.7,143.4 80.7,120.1 98.1,138.4 98.1,121 100.6,121 100.6,144.4 83.1,126.1 83.1,143.4 "/>
<rect x="105.7" y="121" class="st0" width="2.5" height="22.4"/>
<path class="st0" d="M124.9,132.2h9.3v0.5c0,2.5-0.7,5.2-2.1,7.1c-0.7,0.9-3.2,4-8.3,4c-6.6,0-11.6-5.1-11.6-11.6
	c0-6.5,5-11.6,11.7-11.6c2.1,0,4.7,0.5,6.8,2.2c1,0.8,1.9,1.8,2.6,2.7l-1.8,1.7c-0.6-0.9-1.4-1.7-2.1-2.3c-1.1-0.9-2.8-1.9-5.4-1.9
	c-5.4,0-9.2,4.1-9.2,9.3c0,6.1,4.9,9.2,9.1,9.2c3,0,5.6-1.5,6.8-3.8c0.4-0.7,0.8-1.8,0.9-3.2h-6.6V132.2z"/>
<polygon class="st0" points="140.7,130.1 152.1,130.1 152.1,121 154.6,121 154.6,143.4 152.1,143.4 152.1,132.5 140.7,132.5 
	140.7,143.4 138.2,143.4 138.2,121 140.7,121 "/>
<polygon class="st0" points="165.3,123.4 165.3,143.4 162.8,143.4 162.8,123.4 157.3,123.4 157.3,121 170.7,121 170.7,123.4 "/>
<path class="st0" d="M52.1,172.5c0,5.1,4.1,9.2,9.1,9.2c5,0,9.1-4.1,9.1-9.2s-4.1-9.2-9.1-9.2C56.2,163.3,52.1,167.4,52.1,172.5
	 M49.6,172.5c0-6.7,5.2-11.6,11.7-11.6c6.4,0,11.7,4.9,11.7,11.6c0,6.6-5.2,11.6-11.7,11.6S49.6,179.2,49.6,172.5"/>
<polygon class="st0" points="76.8,183.7 76.8,160.4 94.3,178.7 94.3,161.3 96.7,161.3 96.7,184.7 79.3,166.4 79.3,183.7 "/>
<polygon class="st0" points="104.4,161.3 104.4,181.4 110.5,181.4 110.5,183.7 101.9,183.7 101.9,161.3 "/>
<polygon class="st0" points="116.9,174.1 109.5,161.3 112.4,161.3 118.1,171.3 123.9,161.3 126.8,161.3 119.3,174.1 119.3,183.7 
	116.9,183.7 "/>
<polygon class="st0" points="31.7,201.6 38,218.7 44.4,201.6 47.1,201.6 38,225.4 29,201.6 "/>
<polygon class="st0" points="61.2,204 52.1,204 52.1,210.6 61,210.6 61,213 52.1,213 52.1,221.7 61.2,221.7 61.2,224 49.6,224 
	49.6,201.6 61.2,201.6 "/>
<polygon class="st0" points="65.2,224 65.2,200.7 82.6,219 82.6,201.6 85.1,201.6 85.1,225 67.7,206.7 67.7,224 "/>
<polygon class="st0" points="100.7,204 91.6,204 91.6,210.6 100.4,210.6 100.4,213 91.6,213 91.6,221.7 100.7,221.7 100.7,224 
	89.1,224 89.1,201.6 100.7,201.6 "/>
<polygon class="st0" points="106.7,221.7 118.6,221.7 118.6,224 102.6,224 114.8,204 104.1,204 104.1,201.6 118.9,201.6 "/>
<rect x="122" y="201.6" class="st0" width="2.5" height="22.4"/>
<path class="st0" d="M141,215.4l-3.8-9l-3.8,9H141z M142,217.7h-9.5l-2.7,6.3H127l10.3-23.5l10,23.5h-2.8L142,217.7z"/>
<path class="st0" d="M141.3,252.9l2.5-7.3l2.5,7.3H141.3z M114.1,249.7h-1.4v-7h1.1c2,0,3.4,1.3,3.4,3.7
	C117.2,247.7,116.2,249.7,114.1,249.7 M98.8,252.9l2.5-7.3l2.5,7.3H98.8z M170.2,242.7v-0.6h-8.5v0.6h1.3v11.6l-7.9-12.2h-3.7v0.6
	h1.3v15.5h-2.3l-5.7-16.9l-5.9,16.9h-2.2v-15.5h1.3v-0.6h-3.5l-4.4,12.7l-4.6-12.7H122v0.6h1.3v15.5h-2.6c-0.7,0-1.4-0.7-1.4-1.8
	V254c0-1.9-0.6-3.5-2.5-4c1.6-0.5,2.8-2.1,2.8-3.7c0-2.4-1.8-4.2-5.2-4.2h-5.2v0.6h1.3v15.5h-2.7l-5.7-16.9l-5.9,16.9h-1.2v0.6h3.3
	v-0.6h-1.5l1.7-4.7h5.4l1.6,4.7h-2v0.6h11.2v-0.6h-2v-7.9h1.4c2,0,3,0.8,3,2.8v1.4c0,3.4,2.2,4.3,3.5,4.3h4.8v-0.6h-1.4v-13.8
	l5.4,14.5l5.1-15v14.2h-1.3v0.6h7.8v-0.6h-1.5l1.7-4.7h5.4l1.6,4.7h-2v0.6h8.6v-0.6h-1.3v-14.7l10.3,15.8v-16.7h3.1v15.5h-1.3v0.6
	h4.8v-0.6h-1.3v-15.5H170.2z"/>
<path class="st0" d="M80.1,258.6c-4.2,0-4.5-5.5-4.5-8.2c0-2.6,0.3-8.2,4.5-8.2c4.1,0,4.5,5.6,4.5,8.2
	C84.6,253.1,84.4,258.6,80.1,258.6 M80.1,241.6c-4.4,0-7.3,4.9-7.3,8.8c0,4.2,3.1,8.8,7.3,8.8c4.2,0,7.3-4.2,7.3-8.8
	C87.4,246.5,84.3,241.6,80.1,241.6"/>
<polygon class="st0" points="67.4,242.7 68.7,242.7 68.7,258.2 67.4,258.2 67.4,258.8 72.2,258.8 72.2,258.2 70.9,258.2 70.9,242.7 
	72.2,242.7 72.2,242.1 67.4,242.1 "/>
<path class="st0" d="M45.9,249.7h-1.4v-7h1.1c2,0,3.4,1.3,3.4,3.7C49.1,247.7,48,249.7,45.9,249.7 M52.6,258.3
	c-0.7,0-1.4-0.7-1.4-1.8V254c0-1.9-0.6-3.4-2.5-4c1.6-0.5,2.8-2.1,2.8-3.7c0-2.4-1.8-4.2-5.2-4.2h-5.2v0.6h1.3v15.5h-1.3v0.6h5.5
	v-0.6h-2v-7.9h1.4c2,0,3,0.8,3,2.8v1.6c0,3.4,2.2,4.3,3.5,4.3c0.8,0,1.1-0.2,1.5-0.6l-0.4-0.5C53.1,258.3,52.8,258.3,52.6,258.3"/>
<path class="st0" d="M33.2,258.6c-4.2,0-4.5-5.5-4.5-8.2c0-2.6,0.3-8.2,4.5-8.2c4.1,0,4.5,5.6,4.5,8.2
	C37.7,253.1,37.4,258.6,33.2,258.6 M33.2,241.6c-4.4,0-7.3,4.9-7.3,8.8c0,4.2,3.1,8.8,7.3,8.8c4.2,0,7.3-4.2,7.3-8.8
	C40.4,246.5,37.4,241.6,33.2,241.6"/>
<polygon class="st0" points="20.4,242.7 21.7,242.7 21.7,258.2 20.4,258.2 20.4,258.8 25.2,258.8 25.2,258.2 23.9,258.2 23.9,242.7 
	25.2,242.7 25.2,242.1 20.4,242.1 "/>
<path class="st0" d="M15,252.2h1.6v3c0,1.6-1.2,3.3-3.3,3.3c-4,0-4.4-5-4.4-8.2c0-2.9,0.3-8.2,4.7-8.2c1.7,0,3.5,1.5,3.9,4.8H18
	v-5.3h-0.5c-0.1,0.6-0.4,0.8-1,0.8c-0.6,0-1.3-0.9-2.9-0.9c-5,0-7.5,5.3-7.5,8.8c0,3.7,2.8,8.8,7.2,8.8c2.4,0,2.6-1.4,4-1.4
	c0.4,0,0.7,0.4,0.8,1h0.6v-6.6h1.3v-0.6h-5V252.2z"/>
<path class="st0" d="M62,252.2h1.6v3c0,1.6-1.2,3.3-3.3,3.3c-4,0-4.4-5-4.4-8.2c0-2.9,0.3-8.2,4.7-8.2c1.7,0,3.5,1.5,3.9,4.8H65
	v-5.3h-0.5c-0.1,0.6-0.4,0.8-1,0.8c-0.6,0-1.3-0.9-2.9-0.9c-5,0-7.5,5.3-7.5,8.8c0,3.7,2.8,8.8,7.2,8.8c2.4,0,2.6-1.4,4-1.4
	c0.4,0,0.7,0.4,0.8,1h0.6l0-6.6H67v-0.6h-5V252.2z"/>
</svg>
